<svg width="25" height="26" viewBox="0 0 25 26" fill="none" xmlns="http://www.w3.org/2000/svg">
<path d="M23.625 0.563965H1.375C1.01033 0.563965 0.660591 0.708831 0.402728 0.966693C0.144866 1.22456 0 1.57429 0 1.93896V24.189C0 24.5536 0.144866 24.9034 0.402728 25.1612C0.660591 25.4191 1.01033 25.564 1.375 25.564H13.35V15.8765H10.1V12.1265H13.35V9.31396C13.2827 8.65366 13.3606 7.98662 13.5784 7.35964C13.7962 6.73265 14.1485 6.1609 14.6106 5.68448C15.0727 5.20806 15.6335 4.83852 16.2535 4.60176C16.8736 4.36501 17.538 4.26678 18.2 4.31396C19.1729 4.30725 20.1454 4.35733 21.1125 4.46396V7.83896H19.125C17.55 7.83896 17.25 8.58896 17.25 9.67647V12.089H21L20.5125 15.839H17.25V25.564H23.625C23.8056 25.564 23.9844 25.5284 24.1512 25.4593C24.318 25.3902 24.4696 25.2889 24.5973 25.1612C24.725 25.0336 24.8262 24.882 24.8953 24.7152C24.9644 24.5483 25 24.3695 25 24.189V1.93896C25 1.7584 24.9644 1.5796 24.8953 1.41278C24.8262 1.24595 24.725 1.09437 24.5973 0.966693C24.4696 0.839013 24.318 0.737731 24.1512 0.668631C23.9844 0.59953 23.8056 0.563965 23.625 0.563965Z" fill="black"/>
</svg>
