<svg width="25" height="26" viewBox="0 0 25 26" fill="none" xmlns="http://www.w3.org/2000/svg">
<path d="M8.36189 20.5035C8.36189 20.6043 8.24597 20.6849 8.0998 20.6849C7.93347 20.7001 7.81754 20.6194 7.81754 20.5035C7.81754 20.4027 7.93347 20.322 8.07964 20.322C8.23085 20.3069 8.36189 20.3876 8.36189 20.5035ZM6.79435 20.2767C6.75907 20.3775 6.85988 20.4934 7.01109 20.5236C7.14214 20.574 7.29335 20.5236 7.32359 20.4228C7.35383 20.322 7.25806 20.2061 7.10685 20.1607C6.97581 20.1255 6.82964 20.1759 6.79435 20.2767ZM9.02218 20.191C8.87601 20.2263 8.7752 20.322 8.79032 20.438C8.80544 20.5388 8.93649 20.6043 9.0877 20.569C9.23387 20.5337 9.33468 20.438 9.31956 20.3372C9.30443 20.2414 9.16835 20.1759 9.02218 20.191ZM12.3387 0.876465C5.34778 0.876465 0 6.18392 0 13.1749C0 18.7646 3.51815 23.5478 8.54335 25.2313C9.18851 25.3472 9.41532 24.949 9.41532 24.6214C9.41532 24.3089 9.4002 22.5851 9.4002 21.5267C9.4002 21.5267 5.87198 22.2827 5.13105 20.0247C5.13105 20.0247 4.55645 18.5579 3.72984 18.1799C3.72984 18.1799 2.5756 17.3886 3.81048 17.4037C3.81048 17.4037 5.06552 17.5045 5.75605 18.7041C6.85988 20.6497 8.70968 20.0902 9.43044 19.7575C9.54637 18.9511 9.87399 18.3916 10.2369 18.0589C7.41935 17.7464 4.57661 17.3382 4.57661 12.4894C4.57661 11.1033 4.95968 10.4077 5.76613 9.52062C5.63508 9.193 5.20665 7.84219 5.89718 6.09824C6.9506 5.77062 9.375 7.45913 9.375 7.45913C10.3831 7.17687 11.4667 7.0307 12.5403 7.0307C13.6139 7.0307 14.6976 7.17687 15.7056 7.45913C15.7056 7.45913 18.13 5.76558 19.1835 6.09824C19.874 7.84723 19.4456 9.193 19.3145 9.52062C20.121 10.4128 20.6149 11.1083 20.6149 12.4894C20.6149 17.3533 17.6462 17.7414 14.8286 18.0589C15.2923 18.4571 15.6855 19.2132 15.6855 20.3976C15.6855 22.0962 15.6704 24.198 15.6704 24.6113C15.6704 24.939 15.9022 25.3372 16.5423 25.2212C21.5827 23.5478 25 18.7646 25 13.1749C25 6.18392 19.3296 0.876465 12.3387 0.876465ZM4.89919 18.2605C4.83367 18.3109 4.84879 18.4269 4.93448 18.5226C5.01512 18.6033 5.13105 18.6386 5.19657 18.573C5.2621 18.5226 5.24698 18.4067 5.16129 18.3109C5.08065 18.2303 4.96472 18.195 4.89919 18.2605ZM4.35484 17.8523C4.31956 17.9178 4.36996 17.9984 4.47077 18.0488C4.55141 18.0992 4.65222 18.0841 4.6875 18.0136C4.72278 17.948 4.67238 17.8674 4.57157 17.817C4.47077 17.7867 4.39012 17.8019 4.35484 17.8523ZM5.9879 19.6466C5.90726 19.7122 5.9375 19.8634 6.05343 19.9591C6.16935 20.0751 6.31552 20.0902 6.38105 20.0095C6.44657 19.944 6.41633 19.7928 6.31552 19.697C6.20464 19.5811 6.05343 19.566 5.9879 19.6466ZM5.41331 18.9057C5.33266 18.9561 5.33266 19.0872 5.41331 19.2031C5.49395 19.319 5.63004 19.3694 5.69556 19.319C5.77621 19.2535 5.77621 19.1224 5.69556 19.0065C5.625 18.8906 5.49395 18.8402 5.41331 18.9057Z" fill="black"/>
</svg>
