<svg width="25" height="22" viewBox="0 0 25 22" fill="none" xmlns="http://www.w3.org/2000/svg">
<path d="M24.6947 20.6291C24.3666 20.9521 23.9521 21.1895 23.4901 21.3035L23.472 21.307C23.0855 21.3813 22.6928 21.4178 22.2992 21.4158C21.3214 21.418 20.3564 21.1928 19.4806 20.7578L19.5177 20.7742C15.7483 19.1161 16.5808 14.915 18.2345 12.0186C18.731 11.149 19.2207 10.2725 19.7138 9.39339C20.1015 8.70254 20.9409 7.53243 20.6119 6.68528C20.2664 5.79668 19.345 5.7915 18.7397 6.5402C18.1719 7.32188 17.6888 8.16165 17.2984 9.04538L17.2639 9.13346C16.826 10.0471 14.6387 14.8485 14.6387 14.8485C14.1838 15.7899 13.5681 16.6447 12.8191 17.3744L12.8174 17.3761C12.4792 17.6474 12.0584 17.7949 11.6248 17.794C11.244 17.794 10.89 17.6826 10.592 17.4909L10.5998 17.4953C10.3788 17.3391 10.2118 17.118 10.1221 16.8627C10.0323 16.6074 10.0243 16.3305 10.0989 16.0704L10.0964 16.0799C10.5515 13.4702 14.51 7.39771 11.7803 6.96939C10.7337 6.80532 10.4496 7.96939 10.1274 8.71291C9.59377 9.94088 9.18704 11.2189 8.61709 12.4322C7.977 13.7737 7.48308 15.1802 7.14387 16.6274L7.11451 16.7733C6.83817 17.9702 6.48325 19.4944 5.12142 19.8588C1.39087 20.8553 0.259611 18.3934 0.259611 18.3934C-0.349195 16.459 0.227659 14.7146 0.812285 12.8519C1.26565 11.4132 1.53594 9.92879 2.10934 8.52897C3.13266 6.0333 4.15251 0.824338 7.84334 1.15767C8.85251 1.30804 9.81925 1.66714 10.6818 2.21207L10.6516 2.19394C11.3908 2.62485 11.9539 2.85542 12.8148 2.39083C13.6525 1.94005 14.0359 1.09981 15.0342 0.811384C16.1032 0.502232 16.807 0.959052 17.6067 1.60326C18.7276 2.50136 18.8502 2.09722 19.7751 1.8606C20.2947 1.71969 20.8308 1.64883 21.3692 1.6499C21.6887 1.6499 22.0016 1.67379 22.3079 1.72157L22.2733 1.71725C26.5997 2.45818 23.8441 7.98148 22.8122 10.2008C22.1404 11.6447 18.9348 17.4512 21.7759 18.231C22.6326 18.4659 23.7371 18.3588 24.4512 18.9737C25.1749 19.5971 25.1032 20.1861 24.6947 20.6274V20.6291Z" fill="black"/>
</svg>
