<svg width="25" height="26" viewBox="0 0 25 26" fill="none" xmlns="http://www.w3.org/2000/svg">
<path d="M24 0.563965H1C0.446875 0.563965 0 1.01084 0 1.56396V24.564C0 25.1171 0.446875 25.564 1 25.564H24C24.5531 25.564 25 25.1171 25 24.564V1.56396C25 1.01084 24.5531 0.563965 24 0.563965ZM7.41562 21.8671H3.70625V9.93584H7.41562V21.8671ZM5.5625 8.30459C5.13727 8.30459 4.72159 8.17849 4.36802 7.94225C4.01446 7.706 3.73889 7.37022 3.57616 6.97736C3.41343 6.5845 3.37085 6.1522 3.45381 5.73515C3.53677 5.31809 3.74154 4.93499 4.04222 4.63431C4.3429 4.33363 4.726 4.12886 5.14306 4.0459C5.56011 3.96294 5.99241 4.00552 6.38527 4.16825C6.77813 4.33098 7.11391 4.60655 7.35016 4.96011C7.5864 5.31368 7.7125 5.72936 7.7125 6.15459C7.70937 7.34209 6.74687 8.30459 5.5625 8.30459ZM21.3031 21.8671H17.5969V16.064C17.5969 14.6796 17.5719 12.9015 15.6688 12.9015C13.7406 12.9015 13.4438 14.4077 13.4438 15.964V21.8671H9.74063V9.93584H13.2969V11.5671H13.3469C13.8406 10.6296 15.05 9.63896 16.8563 9.63896C20.6125 9.63896 21.3031 12.1108 21.3031 15.3233V21.8671Z" fill="black"/>
</svg>
